<?xml version="1.0" standalone="no"?>
<!DOCTYPE svg PUBLIC "-//W3C//DTD SVG 20010904//EN"
 "http://www.w3.org/TR/2001/REC-SVG-20010904/DTD/svg10.dtd">
<svg version="1.0" xmlns="http://www.w3.org/2000/svg"
 width="260.000000pt" height="260.000000pt" viewBox="0 0 260.000000 260.000000"
 preserveAspectRatio="xMidYMid meet">
<metadata>
Created by potrace 1.11, written by Peter Selinger 2001-2013
</metadata>
<g transform="translate(0.000000,260.000000) scale(0.100000,-0.100000)"
fill="#000000" stroke="none">
<path d="M1274 2501 c-16 -11 -133 -124 -261 -252 -249 -253 -299 -317 -374
-490 -196 -450 -140 -764 136 -764 85 0 156 31 235 102 57 51 72 76 89 148 22
94 112 358 143 419 36 73 55 96 78 96 73 0 -17 -309 -146 -504 -31 -47 -93
-240 -81 -252 3 -3 51 26 108 63 128 84 179 108 213 99 26 -6 29 -12 41 -90
l6 -39 40 39 c32 31 47 39 78 39 67 0 101 -52 101 -153 l0 -44 43 45 c47 48
81 60 132 46 55 -15 66 -37 72 -143 10 -162 -7 -170 303 139 149 149 273 281
277 294 5 20 -19 48 -173 202 l-179 179 -8 -81 c-28 -308 -136 -452 -336 -451
-187 1 -301 146 -352 444 -23 137 -23 163 3 144 12 -9 22 -44 33 -122 29 -196
69 -297 150 -381 58 -59 110 -78 193 -70 157 16 257 150 281 377 16 144 9 167
-68 244 l-66 66 -95 -48 -95 -47 -125 0 c-107 0 -132 3 -172 21 -27 13 -49 31
-53 44 -12 39 14 41 61 5 24 -18 60 -39 81 -46 53 -19 158 -16 223 5 45 15
160 72 160 80 0 5 -641 641 -653 647 -8 5 -26 0 -43 -10z m735 -847 c-33 -36
-61 -45 -103 -33 -53 15 -45 31 12 23 39 -5 52 -2 72 15 35 29 48 26 19 -5z
m-250 -40 c-33 -40 -115 -58 -139 -29 -10 12 -7 13 22 9 21 -3 48 3 73 15 50
24 61 25 44 5z m-969 -59 c17 -9 30 -20 30 -25 0 -14 -6 -13 -42 6 -22 12 -47
15 -82 11 -49 -5 -50 -5 -21 8 40 19 80 18 115 0z m268 -81 l37 -35 -43 27
c-36 23 -49 26 -90 21 -43 -6 -45 -5 -28 8 35 27 82 19 124 -21z m906 -53 c25
-13 46 -29 46 -37 0 -19 -2 -18 -57 16 -34 22 -59 30 -91 30 -54 0 -75 -10
-134 -68 -27 -26 -48 -42 -48 -36 0 14 79 89 115 108 39 21 108 16 169 -13z
m-1255 -198 c61 -41 139 -25 260 51 58 37 76 27 22 -12 -57 -41 -143 -73 -202
-74 -59 -2 -118 34 -142 85 -26 53 -20 68 6 17 12 -25 37 -55 56 -67z"/>
<path d="M357 1592 c-164 -165 -267 -275 -267 -287 0 -12 118 -138 309 -329
l310 -310 86 91 c47 51 119 116 159 147 l73 55 16 73 c8 40 14 74 12 76 -2 3
-23 -12 -47 -31 -24 -20 -73 -50 -108 -66 -110 -52 -249 -40 -332 29 -137 113
-126 398 28 728 23 50 39 92 36 92 -4 0 -128 -121 -275 -268z"/>
<path d="M1295 1680 c-15 -29 -106 -299 -119 -352 -13 -54 11 -27 56 65 71
143 120 317 88 317 -5 0 -16 -13 -25 -30z"/>
<path d="M1254 1087 c-38 -24 -94 -61 -125 -84 l-55 -41 -68 -262 -68 -263
168 -168 c129 -129 175 -169 194 -169 20 0 92 67 334 309 282 282 307 310 288
320 -28 15 -42 62 -42 141 0 54 -4 73 -22 95 -52 67 -160 -15 -183 -138 -12
-62 -30 -38 -32 44 -5 157 -26 209 -85 209 -59 0 -98 -69 -110 -195 -2 -22 -8
-30 -23 -30 -18 0 -20 5 -15 55 9 99 5 187 -9 204 -23 28 -72 19 -147 -27z"/>
<path d="M954 881 c-55 -44 -133 -124 -187 -192 l-36 -45 88 -88 c74 -73 90
-85 95 -70 15 51 96 427 93 431 -2 2 -26 -14 -53 -36z"/>
</g>
</svg>
